<svg xmlns="http://www.w3.org/2000/svg" viewBox="0 0 1600 420" role="img" aria-labelledby="title desc"><title id="title">Basant Kumar — Business Analytics, Data and AI</title><desc id="desc">Dark technical hero with electric blue telemetry lines and the text Basant Kumar.</desc><defs><linearGradient id="bg" x1="0" y1="0" x2="1" y2="1"><stop offset="0" stop-color="#0D1117"/><stop offset="1" stop-color="#111827"/></linearGradient><linearGradient id="glow" x1="0" y1="0" x2="1" y2="0"><stop offset="0" stop-color="#38BDF8" stop-opacity="0"/><stop offset="0.5" stop-color="#38BDF8" stop-opacity="0.95"/><stop offset="1" stop-color="#38BDF8" stop-opacity="0"/></linearGradient><filter id="blur"><feGaussianBlur stdDeviation="12"/></filter><pattern id="grid" width="48" height="48" patternUnits="userSpaceOnUse"><path d="M48 0H0V48" fill="none" stroke="#38BDF8" stroke-opacity="0.07"/></pattern></defs><rect width="1600" height="420" rx="28" fill="url(#bg)"/><rect width="1600" height="420" rx="28" fill="url(#grid)"/><ellipse cx="1280" cy="210" rx="310" ry="180" fill="#38BDF8" opacity="0.08" filter="url(#blur)"/><path d="M0 330 C260 300 360 360 600 320 S980 245 1200 290 S1430 350 1600 300" fill="none" stroke="url(#glow)" stroke-width="3"/><path d="M0 345 C260 315 370 375 610 335 S980 260 1200 305 S1430 365 1600 315" fill="none" stroke="#38BDF8" stroke-opacity="0.12"/><circle cx="1160" cy="286" r="5" fill="#38BDF8"/><circle cx="1160" cy="286" r="14" fill="none" stroke="#38BDF8" stroke-opacity="0.25"/><text x="92" y="154" fill="#38BDF8" font-family="Inter,Segoe UI,Arial,sans-serif" font-size="20" font-weight="700" letter-spacing="4">DATA • AI • DECISION INTELLIGENCE</text><text x="88" y="220" fill="#F8FAFC" font-family="Inter,Segoe UI,Arial,sans-serif" font-size="68" font-weight="800">Basant Kumar</text><text x="92" y="268" fill="#C9D1D9" font-family="Inter,Segoe UI,Arial,sans-serif" font-size="25">Business Analytics · Applied AI · Product Engineering</text><text x="92" y="322" fill="#64748B" font-family="ui-monospace,SFMono-Regular,Menlo,monospace" font-size="16">PROBLEM → DATA → MODEL → VALIDATION → DECISION</text><rect x="92" y="354" width="290" height="2" rx="1" fill="#38BDF8"/></svg>