<svg xmlns="http://www.w3.org/2000/svg" width="1600" height="250" viewBox="0 0 1600 250">
<defs>
  <linearGradient id="bg" x1="0" y1="0" x2="1" y2="1"><stop offset="0" stop-color="#0D1117"/><stop offset="1" stop-color="#111827"/></linearGradient>
  <pattern id="grid" width="32" height="32" patternUnits="userSpaceOnUse"><path d="M32 0H0V32" fill="none" stroke="#38BDF8" stroke-opacity=".045"/></pattern>
  <filter id="glow"><feGaussianBlur stdDeviation="5" result="b"/><feMerge><feMergeNode in="b"/><feMergeNode in="SourceGraphic"/></feMerge></filter>
</defs>
<rect width="1600" height="250" rx="18" fill="url(#bg)"/><rect width="1600" height="250" rx="18" fill="url(#grid)"/>
<g font-family="Arial,Helvetica,sans-serif">
<text x="52" y="48" fill="#F8FAFC" font-size="22" font-weight="700">SKILL MATRIX</text>
<text x="52" y="75" fill="#94A3B8" font-size="14">Analytics → Engineering → Applied AI</text>
<g transform="translate(52 105)">
<rect width="350" height="92" rx="14" fill="#111827" stroke="#38BDF8" stroke-opacity=".25"/>
<text x="22" y="28" fill="#38BDF8" font-size="13" font-weight="700">ANALYTICS</text>
<text x="22" y="55" fill="#F8FAFC" font-size="15">Python · SQL · R · Excel</text><text x="22" y="78" fill="#CBD5E1" font-size="14">Power BI · Tableau · Statistics</text>
</g>
<g transform="translate(425 105)">
<rect width="350" height="92" rx="14" fill="#111827" stroke="#38BDF8" stroke-opacity=".25"/>
<text x="22" y="28" fill="#38BDF8" font-size="13" font-weight="700">MACHINE LEARNING</text>
<text x="22" y="55" fill="#F8FAFC" font-size="15">XGBoost · scikit-learn · SHAP</text><text x="22" y="78" fill="#CBD5E1" font-size="14">ARIMA · Prophet · Classification</text>
</g>
<g transform="translate(798 105)">
<rect width="350" height="92" rx="14" fill="#111827" stroke="#38BDF8" stroke-opacity=".25"/>
<text x="22" y="28" fill="#38BDF8" font-size="13" font-weight="700">PRODUCT ENGINEERING</text>
<text x="22" y="55" fill="#F8FAFC" font-size="15">TypeScript · React Native · FastAPI</text><text x="22" y="78" fill="#CBD5E1" font-size="14">PostgreSQL · Git · APIs</text>
</g>
<g transform="translate(1171 105)">
<rect width="350" height="92" rx="14" fill="#111827" stroke="#38BDF8" stroke-opacity=".25"/>
<text x="22" y="28" fill="#38BDF8" font-size="13" font-weight="700">3D + AI SYSTEMS</text>
<text x="22" y="55" fill="#F8FAFC" font-size="15">Blender · Three.js · AI workflows</text><text x="22" y="78" fill="#CBD5E1" font-size="14">Data → Model → Product</text>
</g>
<circle cx="1528" cy="48" r="5" fill="#38BDF8" filter="url(#glow)"/>
</g></svg>